<?xml version="1.0" encoding="UTF-8" standalone="no"?>
<!-- Created with Inkscape (http://www.inkscape.org/) -->

<svg
   xmlns:dc="http://purl.org/dc/elements/1.1/"
   xmlns:cc="http://creativecommons.org/ns#"
   xmlns:rdf="http://www.w3.org/1999/02/22-rdf-syntax-ns#"
   xmlns:svg="http://www.w3.org/2000/svg"
   xmlns="http://www.w3.org/2000/svg"
   xmlns:sodipodi="http://sodipodi.sourceforge.net/DTD/sodipodi-0.dtd"
   xmlns:inkscape="http://www.inkscape.org/namespaces/inkscape"
   width="200.73969mm"
   height="106.4648mm"
   viewBox="0 0 711.28235 377.23747"
   id="svg4482"
   version="1.1"
   inkscape:version="0.92pre1 r14954"
   sodipodi:docname="netboot_only.svg">
  <defs
     id="defs4484" />
  <sodipodi:namedview
     id="base"
     pagecolor="#ffffff"
     bordercolor="#666666"
     borderopacity="1.0"
     inkscape:pageopacity="0.0"
     inkscape:pageshadow="2"
     inkscape:zoom="0.49497475"
     inkscape:cx="336.35553"
     inkscape:cy="133.64168"
     inkscape:document-units="px"
     inkscape:current-layer="layer1"
     showgrid="false"
     inkscape:window-width="1920"
     inkscape:window-height="1028"
     inkscape:window-x="0"
     inkscape:window-y="24"
     inkscape:window-maximized="1"
     fit-margin-top="10"
     fit-margin-left="10"
     fit-margin-right="10"
     fit-margin-bottom="10" />
  <metadata
     id="metadata4487">
    <rdf:RDF>
      <cc:Work
         rdf:about="">
        <dc:format>image/svg+xml</dc:format>
        <dc:type
           rdf:resource="http://purl.org/dc/dcmitype/StillImage" />
        <dc:title></dc:title>
      </cc:Work>
    </rdf:RDF>
  </metadata>
  <g
     inkscape:label="Calque 1"
     inkscape:groupmode="layer"
     id="layer1"
     transform="translate(-21.209946,524.69669)">
    <g
       style="font-style:normal;font-variant:normal;font-weight:normal;font-stretch:normal;font-size:92.08668518px;line-height:1000%;font-family:'Arial Black';-inkscape-font-specification:'Arial Black, Normal';text-align:start;letter-spacing:0px;word-spacing:0px;writing-mode:lr-tb;text-anchor:start;fill:#000000;fill-opacity:1;stroke:none;stroke-width:1px;stroke-linecap:butt;stroke-linejoin:miter;stroke-opacity:1"
       id="text5741" />
    <g
       id="g6008">
      <path
         sodipodi:nodetypes="sssssssss"
         inkscape:connector-curvature="0"
         id="rect5772"
         d="m 185.43444,-487.2264 h 392.82411 c 23.51668,0 33.37075,23.91698 42.44889,49.37723 l 72.57537,203.54244 c 9.07814,25.46025 -18.93221,49.37722 -42.44889,49.37722 H 103.16586 c -23.516687,0 -52.515487,-24.47125 -42.448892,-49.37722 l 82.268582,-203.54244 c 10.0666,-24.90597 18.93221,-49.37723 42.44889,-49.37723 z"
         style="opacity:1;fill:none;fill-opacity:1;stroke:#000000;stroke-width:4.0744381;stroke-linejoin:round;stroke-miterlimit:4;stroke-dasharray:none;stroke-opacity:1" />
      <path
         inkscape:connector-curvature="0"
         id="path5739"
         d="m 127.02805,-296.46947 c -10.2889,0 -14.24922,9.23366 -18.57226,18.57031 -7.3059,15.77889 -15.725006,32.10635 -17.539066,49.52539 -1.50864,14.48645 8.28337,18.57227 18.572266,18.57227 h 540.91016 c 10.2889,0 19.82382,-4.71071 18.57226,-18.57227 -1.54856,-17.15082 -8.89936,-33.46832 -14.70312,-49.52539 -3.49744,-9.67623 -8.28337,-18.57031 -18.57227,-18.57031 z m 321.17774,9.08984 c 10.97126,0 19.4241,2.95212 25.35937,8.85742 5.93528,5.87532 8.9043,14.11892 8.9043,24.73047 0,7.70387 -1.30419,14.02854 -3.91211,18.97461 -2.57795,4.91608 -6.3261,8.75196 -11.24219,11.50977 -4.88611,2.72782 -10.98465,4.09179 -18.29883,4.09179 -7.43408,0 -13.59435,-1.18267 -18.48046,-3.55078 -4.85614,-2.36811 -8.79859,-6.11627 -11.82618,-11.24219 -3.02759,-5.12592 -4.54101,-11.54027 -4.54101,-19.24414 0,-10.76143 2.99696,-19.13954 8.99219,-25.13476 5.99522,-5.99523 14.34344,-8.99219 25.04492,-8.99219 z m 76.79883,0 c 10.97126,0 19.4241,2.95212 25.35937,8.85742 5.93528,5.87532 8.9043,14.11892 8.9043,24.73047 0,7.70387 -1.30419,14.02854 -3.91211,18.97461 -2.57795,4.91608 -6.3261,8.75196 -11.24219,11.50977 -4.88611,2.72782 -10.98465,4.09179 -18.29883,4.09179 -7.43408,0 -13.59436,-1.18267 -18.48047,-3.55078 -4.85613,-2.36811 -8.79858,-6.11627 -11.82617,-11.24219 -3.02759,-5.12592 -4.54101,-11.54027 -4.54101,-19.24414 0,-10.76143 2.99696,-19.13954 8.99218,-25.13476 5.99523,-5.99523 14.34345,-8.99219 25.04493,-8.99219 z m -389.61524,1.12305 h 19.02149 l 24.82031,36.46679 v -36.46679 h 19.19922 v 65.91797 h -19.19922 l -24.68555,-36.19727 v 36.19727 h -19.15625 z m 76.61914,0 h 54.58789 v 14.07422 h -34.17383 v 10.47656 h 31.69922 v 13.44336 h -31.69922 v 12.99609 h 35.16211 v 14.92774 h -55.57617 z m 61.96094,0 h 61.91602 v 16.27734 h -20.77344 v 49.64063 H 294.7429 v -49.64063 h -20.77344 z m 71.22461,0 h 38.12891 c 6.35494,0 11.22598,1.57321 14.61328,4.7207 3.41728,3.14749 5.125,7.04511 5.125,11.69141 0,3.8969 -1.21256,7.23956 -3.64063,10.02734 -1.61871,1.85852 -3.98795,3.32711 -7.10547,4.40625 4.73623,1.13909 8.21341,3.10285 10.43164,5.89062 2.24822,2.75781 3.37305,6.23499 3.37305,10.43165 0,3.41727 -0.79407,6.48896 -2.38281,9.21679 -1.58874,2.72783 -3.76173,4.88588 -6.51953,6.47461 -1.70864,0.98922 -4.28713,1.70856 -7.73438,2.15821 -4.58635,0.59952 -7.62815,0.90039 -9.12695,0.90039 h -35.16211 z m 218.25586,0 h 61.91601 v 16.27734 h -20.77343 v 49.64063 h -20.36914 v -49.64063 h -20.77344 z m -197.70899,13.35547 v 12.5 h 8.85938 c 3.17747,0 5.38035,-0.54001 6.60937,-1.61915 1.259,-1.10911 1.88868,-2.69922 1.88868,-4.76757 0,-1.91848 -0.62968,-3.41696 -1.88868,-4.4961 -1.22902,-1.07914 -3.38706,-1.61718 -6.47461,-1.61718 z m 82.41993,0.94335 c -4.10674,0 -7.40456,1.45365 -9.89258,4.36133 -2.48802,2.90769 -3.73047,7.71894 -3.73047,14.4336 0,6.6547 1.2275,11.43606 3.68555,14.34375 2.48802,2.90768 5.86058,4.36133 10.11718,4.36132 4.37652,0 7.76403,-1.42375 10.16211,-4.27148 2.3981,-2.84773 3.59766,-7.9579 3.59766,-15.33203 0,-6.20506 -1.25935,-10.73235 -3.77734,-13.58008 -2.48803,-2.87771 -5.87553,-4.31641 -10.16211,-4.31641 z m 76.79882,0 c -4.10673,0 -7.40455,1.45365 -9.89257,4.36133 -2.48802,2.90769 -3.73047,7.71894 -3.73047,14.4336 0,6.6547 1.2275,11.43606 3.68554,14.34375 2.48802,2.90768 5.86058,4.36133 10.11719,4.36132 4.37652,0 7.76402,-1.42375 10.16211,-4.27148 2.39809,-2.84773 3.59766,-7.9579 3.59766,-15.33203 0,-6.20506 -1.25935,-10.73235 -3.77735,-13.58008 -2.48802,-2.87771 -5.87552,-4.31641 -10.16211,-4.31641 z m -159.21875,24.10157 v 13.35351 h 10.38672 c 3.50721,0 5.98106,-0.61473 7.41992,-1.84375 1.43886,-1.25899 2.15821,-2.93682 2.15821,-5.03515 0,-1.94845 -0.71935,-3.50866 -2.15821,-4.67774 -1.40888,-1.19904 -3.89768,-1.79687 -7.46484,-1.79687 z"
         style="opacity:1;fill:#ff0000;fill-opacity:1;stroke:none;stroke-width:3.77952766;stroke-linejoin:round;stroke-miterlimit:4;stroke-dasharray:none;stroke-opacity:1" />
      <path
         style="fill:#000000"
         d="m 525.9337,-370.20993 c 0.21333,-0.52064 0.57375,-0.87124 0.39284,-1.0501 -0.18097,-0.17886 -0.37958,0.212 -0.72188,0.72492 l -1.87639,2.81166 c -3.10868,4.65808 -7.20726,9.82312 -10.33136,14.38321 -2.91971,4.27902 -6.84452,9.7963 -15.64799,21.99704 -3.82553,5.30183 -9.42805,13.08244 -12.45007,17.29024 l -5.49461,7.65059 -8.95153,0.0526 c -9.88202,0.0578 -11.34301,-0.31151 -13.59764,-3.43871 -1.01334,-1.40566 -1.22691,-2.34981 -1.02485,-4.53145 0.42556,-4.59521 2.01394,-17.18512 3.43204,-27.20387 0.73731,-5.20851 1.50751,-11.1801 1.71161,-13.2703 0.20423,-2.09019 0.5848,-4.72194 0.84588,-5.84835 0.26113,-1.12635 0.61576,-3.88945 0.78808,-6.14016 0.25675,-3.35386 0.19405,-3.82787 -0.34762,-2.62749 -3.65952,8.11028 -5.99847,13.61295 -9.95997,23.43192 -1.49465,3.70475 -3.19656,7.79048 -3.78188,9.07945 -1.67842,3.69563 -3.29186,7.49504 -5.53369,13.03107 -1.14224,2.82043 -2.58191,6.31424 -3.19942,7.76413 -0.6174,1.44983 -1.82141,4.27657 -2.67552,6.28157 l -1.55279,3.6455 -6.02762,0.0514 c -7.93312,0.067 -9.99141,-1.00884 -10.05364,-5.25614 -0.031,-2.12099 0.66081,-4.03548 4.41833,-12.22523 1.10888,-2.41689 2.36652,-5.38556 2.79483,-6.59705 1.03917,-2.93957 6.43017,-15.55122 7.48535,-17.51122 0.46074,-0.85575 0.83594,-1.86091 0.83372,-2.23359 0,-0.37269 0.67413,-2.1768 1.50294,-4.00907 0.82881,-1.83216 2.35572,-5.43991 3.39301,-8.01708 1.96813,-4.88959 7.36042,-17.96525 9.90394,-24.0159 2.06261,-4.90665 5.89918,-8.50896 6.69977,-9.02598 0.80059,-0.51689 2.46726,-1.34874 3.64544,-1.55279 1.45334,-0.25178 18.05167,-0.28369 18.05167,-0.28369 l 18.05167,-0.28363 -0.34183,3.10143 c -0.18798,1.70577 -0.59011,4.81205 -0.89355,6.90283 -0.30345,2.09084 -0.93358,7.09057 -1.40029,11.11063 -0.4667,4.02005 -1.34792,11.37427 -1.95831,16.34269 -0.61033,4.96841 -1.02456,9.11766 -0.92043,9.22056 0.10413,0.1029 0.92294,-0.94007 1.81959,-2.31774 0.89665,-1.37772 3.93416,-5.67381 6.75003,-9.54696 2.81581,-3.87315 8.69116,-12.02936 13.05632,-18.12495 6.58262,-9.19222 10.2211,-12.51908 11.08947,-13.12597 1.69367,-1.18361 3.60693,-2.30312 4.98367,-2.647 1.37679,-0.34387 34.74115,-0.958 35.33418,-0.37192 0.31934,0.31559 -0.93065,3.6587 -4.37918,11.71248 -1.10367,2.57753 -2.33263,5.47725 -2.73096,6.44373 -0.92838,2.25246 -7.00036,16.61171 -11.02304,26.0677 -1.7133,4.02735 -3.36911,7.78054 -3.67962,8.34038 -0.31045,0.55997 -0.563,1.27793 -0.56113,1.59563 0,0.31769 -0.80141,2.36237 -1.78506,4.54378 -0.98366,2.18135 -2.94565,6.73542 -4.35996,10.12007 -3.7152,8.89089 -4.26313,10.17565 -6.85386,16.06818 l -2.33771,5.31725 -9.02517,0.0845 c -4.9638,0.0467 -9.83889,-0.0803 -10.83359,-0.28188 v 0 c -2.59103,-0.52519 -4.34371,-2.4793 -4.35768,-4.8585 -0.0111,-1.84151 1.45755,-5.88926 5.01428,-13.82249 0.79457,-1.77232 2.29448,-5.33093 3.33318,-7.90811 2.60581,-6.46557 9.75335,-23.41199 11.08129,-26.65237 z m 22.79751,63.57605 c -3.92159,-0.94731 -4.8512,-4.99331 -2.3986,-10.43947 0.7931,-1.76122 1.44118,-3.35187 1.44007,-3.53483 0,-0.18295 0.36591,-1.16339 0.81543,-2.17872 3.16652,-7.1521 9.55994,-22.14184 9.55836,-22.41016 0,-0.31425 2.30277,-5.81476 4.76028,-11.36154 1.1451,-2.58465 5.21967,-12.38691 9.7395,-23.43063 4.77062,-11.65656 6.112,-13.56223 11.20569,-15.9204 1.96556,-0.90997 3.92101,-1.08194 12.47293,-1.15153 10.40353,-0.0844 10.33253,-0.32202 9.83621,0.73847 -0.16817,0.4459 -1.73516,4.20213 -3.48224,8.34723 -10.18388,24.16139 -13.62317,32.43803 -13.62119,32.77951 0,0.21059 -0.63189,1.86576 -1.40694,3.67811 -0.77505,1.81235 -3.26346,7.77628 -5.52983,13.25312 -2.26632,5.47683 -4.58767,11.01245 -5.15862,12.3013 -0.57088,1.28891 -1.7393,4.05675 -2.59645,6.1508 -0.85715,2.09406 -2.21443,5.25743 -3.01612,7.02975 -0.80176,1.77232 -1.63589,3.88081 -1.85366,4.68554 l -0.396,1.46321 -9.59927,0.14147 c -5.27956,0.0777 -10.12585,0.0146 -10.76955,-0.14123 z m -205.97634,0.39997 c -13.39674,-0.34703 -16.23943,-1.13056 -19.14681,-5.27788 -1.47332,-2.10159 -1.64184,-2.82644 -1.64243,-7.06433 0,-5.43564 1.24427,-9.97791 5.14629,-18.77665 0.42872,-0.96665 2.45335,-5.71167 4.4992,-10.54447 9.03065,-21.33325 10.80665,-25.27617 13.41614,-29.78635 4.0526,-7.00456 9.38967,-12.18462 15.5965,-15.13781 8.51768,-4.0526 9.982,-4.20727 39.44791,-4.16631 l 26.00325,0.0362 3.61523,1.64459 c 1.98835,0.90459 4.12897,2.20677 4.75683,2.89382 2.43723,2.66692 3.1705,8.25443 1.90403,14.5096 -0.56802,2.80576 -6.92965,19.25637 -7.99464,20.67354 -0.24262,0.32278 -0.63686,1.24543 -0.87614,2.05029 -0.23934,0.80485 -1.13991,3.04522 -2.00132,4.97864 -4.44732,9.98141 -5.77286,13.07525 -5.77052,13.46844 0,0.23764 -0.92301,2.44506 -2.05415,4.90536 -6.56596,14.28107 -14.50486,21.6977 -26.29739,24.56727 -4.3145,1.0498 -28.20914,1.55431 -48.60198,1.02602 z m 39.44867,-16.86058 c 1.89684,-1.39309 3.41849,-4.33196 8.33151,-16.09125 1.95171,-4.67158 4.00848,-9.54825 4.57055,-10.83704 5.36587,-12.30482 11.50825,-27.45536 11.50288,-28.37246 -0.0152,-2.57712 -1.83812,-2.9463 -14.18974,-2.87384 -12.41612,0.0729 -14.11745,0.39085 -16.71373,3.12352 -1.2937,1.36177 -7.4126,15.03753 -13.93433,31.14345 -2.60119,6.42404 -4.33892,10.51169 -7.8301,18.41898 -1.70033,3.85124 -1.70652,5.08242 -0.0316,6.25551 1.13003,0.79147 3.14461,0.88964 13.98686,0.6815 11.68467,-0.22432 12.79401,-0.33663 14.30777,-1.44837 z m -160.64945,17.40032 c -3.64924,0.0123 -4.69963,-0.85791 -5.36378,-1.75649 -1.45602,-1.97029 -0.94181,-3.46067 2.7769,-8.04805 1.99419,-2.46007 5.58295,-7.03564 7.97495,-10.16787 2.392,-3.13222 6.56772,-8.50914 9.27929,-11.94867 2.71157,-3.43964 6.10423,-7.8253 7.53922,-9.74598 1.43493,-1.92074 5.87155,-7.6409 9.85911,-12.71151 3.98757,-5.07055 9.85987,-12.58471 13.0496,-16.69802 10.16623,-13.11007 14.84757,-16.94022 15.38918,-17.31314 0.54173,-0.37286 1.51148,-1.45304 4.36469,-2.04818 2.85321,-0.59514 13.43823,-0.0788 13.43823,-0.0788 l 13.43818,-0.0789 -0.0555,2.77596 c -0.031,1.52673 0.0234,21.85295 0.11997,45.16935 l 0.1757,42.39338 -13.63094,-0.0961 c -13.44367,-0.0948 -13.66051,-0.11611 -15.77723,-1.54438 -2.62936,-1.77431 -3.34568,-3.64836 -3.37613,-8.83245 l -0.0234,-4.00305 -18.0841,0.10612 -18.08404,0.10611 -1.62378,2.20081 c -0.89303,1.21043 -1.88493,2.49724 -2.2042,2.85958 -0.31928,0.36234 -1.79482,2.72629 -3.76979,4.83828 -1.29639,1.3862 -3.31518,3.45747 -4.48617,4.35265 -2.69035,0.13101 -6.49643,0.25465 -10.92574,0.26932 z m 61.83995,-49.17368 c -0.0906,-11.15363 -0.26301,-14.05446 -0.77096,-12.97205 -0.35983,0.76687 -1.58826,2.35174 -2.72974,3.52203 -1.14154,1.17029 -2.83545,3.18411 -3.76412,4.47512 -0.92873,1.29096 -1.84548,2.47965 -2.0372,2.64145 -0.19166,0.1618 -1.547,1.87896 -3.01179,3.81589 -1.46485,1.93687 -3.24535,4.18244 -3.95677,4.99003 -0.71142,0.80766 -1.87861,2.3961 -2.59377,3.52987 -0.71516,1.13371 -1.27255,1.70284 -2.09072,2.76608 0,0 -0.53425,0.73386 -0.90314,1.32555 0.55769,0.0567 1.43172,0.0175 3.05662,-4.1e-4 1.90835,-0.0205 6.93689,0.2796 11.18834,0.27714 l 7.72994,-0.006 -0.1164,-14.3662 z m -98.55327,48.40173 c -2.95407,-0.68787 -6.47259,-2.95553 -8.10999,-5.22675 -1.13804,-1.57844 -1.46923,-3.18201 -2.14653,-10.39173 -0.44041,-4.68881 -1.08877,-11.28446 -1.44077,-14.6569 -0.35206,-3.3725 -1.20786,-12.04485 -1.90187,-19.27198 -1.84063,-19.16867 -1.92092,-19.76462 -2.47714,-18.3921 -0.93848,2.31587 -14.52212,34.61296 -15.52132,36.90434 -0.56206,1.28885 -2.49537,5.90182 -4.29638,10.25108 -1.80101,4.34926 -3.50777,8.43505 -3.79292,9.0795 -0.28516,0.64446 -1.5286,3.54418 -2.76323,6.4439 l -2.24475,5.27221 -7.31665,0.20597 c -7.15035,0.2013 -7.35808,0.1715 -9.14349,-1.31304 -2.2032,-1.83192 -2.44646,-4.5453 -0.76248,-8.50523 0.59975,-1.41027 3.0794,-7.44041 5.51043,-13.40031 4.85909,-11.91285 6.93549,-16.95442 8.08177,-19.62269 3.76277,-8.75871 11.09718,-26.18059 16.39954,-38.95462 9.82087,-23.65975 12.64883,-26.51792 13.57955,-27.39552 0.93071,-0.8776 2.87378,-2.06741 4.10373,-2.21221 1.90204,-0.22391 7.98424,-0.25038 7.98424,-0.25038 l 7.98424,-0.25038 0.41517,3.41241 c 0.22835,1.87685 0.8128,6.30255 1.29878,9.83498 1.33192,9.68031 3.79696,28.58551 5.13892,39.41256 0.65679,5.29902 1.51592,11.42581 1.90906,13.61522 l 0.71486,3.98061 1.35494,-3.7006 c 0.74519,-2.03538 1.83391,-4.75525 2.41923,-6.04422 1.53216,-3.37373 9.46557,-22.73072 16.31394,-39.80511 1.54484,-3.85159 3.01431,-7.27861 3.26551,-7.61553 0.25126,-0.33686 1.05892,-2.1571 1.79488,-4.04477 1.46414,-3.75564 3.89074,-5.99484 8.39233,-7.74432 2.20023,-0.85516 4.86254,-0.94666 22.30201,-0.76646 10.89197,0.11254 20.46114,0.23969 21.26488,0.28258 0.80368,0.0427 21.44474,-0.067 45.86901,-0.24401 24.42417,-0.17723 58.34434,-0.27709 75.37811,-0.22211 17.03372,0.0549 69.22942,0.0193 115.99035,-0.0794 46.761,-0.0984 85.94157,0.0374 87.06798,0.3021 5.50594,1.29358 8.2431,3.50222 10.55096,8.51364 0.9351,2.0306 1.88457,4.26133 2.10988,4.95702 l 0.40968,1.2649 -126.13333,0.29333 c -69.37322,0.16133 -133.1016,0.26517 -141.61852,0.23063 -8.51691,-0.0345 -34.08957,-0.14982 -56.82818,-0.2564 -37.63235,-0.17623 -41.34253,-0.10997 -41.3375,0.73812 0.006,0.51246 -1.06517,3.38209 -2.37377,6.37705 -1.30855,2.99491 -3.61769,8.47648 -5.13139,12.18129 -1.5137,3.70487 -4.74596,11.48086 -7.18266,17.28013 -2.43676,5.79921 -5.33929,12.78449 -6.45003,15.52276 -1.11075,2.73827 -2.48824,6.03329 -3.06112,7.3222 -0.57287,1.28885 -2.51932,5.90193 -4.32542,10.25125 -1.80604,4.34932 -4.50761,10.80748 -6.00331,14.35148 -1.49576,3.544 -3.22736,7.76138 -3.84797,9.37196 l -1.1284,2.9283 -9.03749,0.14766 c -4.97057,0.0812 -10.0229,-0.0819 -11.22737,-0.3624 z"
         id="path5762"
         inkscape:connector-curvature="0"
         sodipodi:nodetypes="sssscsscssssssssssssscssssssssszsccsssscsssszcsssssssscsccssssscsssssssscsssssssscscssccsssscsssssssssssssssssssssscsssssszzcccscssscccssscsccssscscccsscccssscsccscscsssssszsccscscccsssssscsssscccssssssscsssccss" />
      <path
         inkscape:connector-curvature="0"
         style="fill:#ff0000;fill-opacity:1"
         d="m 584.68069,-302.96065 c -9.1e-4,-0.26606 1.43988,-3.87126 3.2025,-8.01155 1.76263,-4.14022 3.42772,-8.05218 3.70015,-8.69316 0.27243,-0.64103 1.84282,-4.31223 3.48972,-8.15825 2.32384,-5.45771 4.16561,-9.50325 5.65785,-13.40254 1.17098,-3.11084 7.86347,-18.94666 10.16438,-24.05095 0.95143,-2.11066 1.87607,-3.26274 2.95153,-3.6775 2.62843,-1.01362 4.15431,0.71216 7.24828,8.19822 1.50627,3.64446 4.38931,10.54385 6.4068,15.33202 2.01749,4.78819 4.71509,11.31237 5.99477,14.49811 1.27961,3.18573 2.69438,6.58106 3.14391,7.54514 0.67561,1.44903 6.08408,14.54509 7.97497,19.31059 l 0.51821,1.30602 -30.22541,0.14381 c -16.62391,0.0791 -30.22639,-0.0738 -30.22766,-0.33996 z"
         id="path5764" />
      <text
         transform="matrix(0.99597442,0,-0.42407897,1.0040419,0,0)"
         sodipodi:linespacing="1000%"
         id="text5897"
         y="-428.30426"
         x="-16.197592"
         style="font-style:normal;font-weight:normal;font-size:60.22048187px;line-height:1000%;font-family:sans-serif;letter-spacing:0px;word-spacing:0px;fill:#ff0000;fill-opacity:1;stroke:none;stroke-width:3;stroke-linecap:butt;stroke-linejoin:miter;stroke-miterlimit:4;stroke-dasharray:none;stroke-opacity:1"
         xml:space="preserve"><tspan
           style="font-style:normal;font-variant:normal;font-weight:normal;font-stretch:normal;font-size:60.22048187px;line-height:1000%;font-family:'Arial Black';-inkscape-font-specification:'Arial Black, Normal';text-align:start;writing-mode:lr-tb;text-anchor:start;fill:#ff0000;fill-opacity:1;stroke:none;stroke-width:3;stroke-miterlimit:4;stroke-dasharray:none;stroke-opacity:1"
           y="-428.30426"
           x="-16.197592"
           id="tspan5899"
           sodipodi:role="line">PiForceTools</tspan></text>
    </g>
  </g>
</svg>
